<?xml version="1.0" standalone="no"?>
<svg width="375" height="54" viewBox="0 0 375 54" fill="none" xmlns="http://www.w3.org/2000/svg">
	<g filter="url(#filter0_d_74_3218)">
		<rect width="375" height="44" transform="translate(0 3)" fill="white"/>
		<path d="M22.6921 37.6508H26.6938V39.0493H22.6921V37.6508ZM26.2398 38.2138V37.9474H23.1522V38.2138H26.2398ZM23.1522 38.4862V38.7587H26.2398V38.4862H23.1522ZM22.002 39.6547V39.3338H27.384V39.6547H22.002ZM26.8452 42.1066H24.914V42.4517H27.2569V42.7725H22.1291V42.4517H24.4781V42.1066H22.5408V41.7857H24.4781V41.4346H22.6861V39.9695H26.6938V41.4346H24.914V41.7857H26.8452V42.1066ZM24.4781 40.5567V40.2601H23.1401V40.5567H24.4781ZM24.914 40.5567H26.2398V40.2601H24.914V40.5567ZM23.1401 40.8413V41.1379H24.4781V40.8413H23.1401ZM24.914 40.8413V41.1379H26.2398V40.8413H24.914Z" fill="#0D1C28"/>
		<path d="M33.3616 40.024C33.1114 40.3509 32.7905 40.6576 32.399 40.9442V42.0581C32.399 42.2519 32.3708 42.4012 32.3143 42.5061C32.2578 42.6111 32.1549 42.6878 32.0055 42.7362C31.8602 42.7887 31.6443 42.821 31.3577 42.8331L30.934 42.8512L30.7523 42.4032L31.3033 42.379C31.4929 42.3709 31.6322 42.3528 31.721 42.3245C31.8098 42.3003 31.8683 42.2579 31.8965 42.1974C31.9288 42.1328 31.945 42.0339 31.945 41.9007V41.253C30.9844 41.8503 29.6929 42.3528 28.0704 42.7604L27.8767 42.3185C29.3216 42.0158 30.496 41.6122 31.4001 41.1077H28.0825V40.7081H28.8695V38.0201H29.9895C30.1106 37.8021 30.2075 37.5923 30.2801 37.3905L30.7826 37.4813C30.7382 37.5902 30.6514 37.7699 30.5223 38.0201H32.399V40.4296C32.6614 40.2117 32.8894 39.9816 33.0831 39.7394L33.3616 40.024ZM31.945 38.9161V38.4136H29.3236V38.9161H31.945ZM29.3236 39.8121H31.945V39.3035H29.3236V39.8121ZM31.945 40.1995H29.3236V40.7081H31.945V40.1995Z" fill="#0D1C28"/>
		<path d="M34.7261 38.4741V39.128H34.2781V38.0625H36.4938C36.4252 37.8082 36.3627 37.6145 36.3062 37.4813L36.736 37.3784C36.8167 37.6003 36.8894 37.8284 36.954 38.0625H38.9821V39.1219H38.5401V38.4741H34.7261ZM37.7228 42.264C38.2031 42.264 38.7359 42.2519 39.3211 42.2277L39.194 42.6696C38.6531 42.6938 38.1405 42.7059 37.6562 42.7059C37.3616 42.7059 37.1376 42.7039 36.9842 42.6999C36.5645 42.6918 36.1972 42.6151 35.8824 42.4698C35.5716 42.3245 35.3113 42.1005 35.1014 41.7978C34.9279 42.1772 34.6574 42.5586 34.2902 42.942L33.8906 42.6454C34.1449 42.3952 34.3467 42.159 34.496 41.9371C34.6453 41.7151 34.7584 41.4729 34.835 41.2106C34.9117 40.9442 34.9662 40.6253 34.9985 40.254L35.4768 40.2843C35.4324 40.7041 35.3658 41.0552 35.277 41.3377C35.4223 41.5799 35.5938 41.7716 35.7916 41.9128C35.9893 42.0501 36.2234 42.1469 36.4938 42.2034V39.7455H34.4355V39.3399H38.8307V39.7455H36.9479V40.7262H38.7278V41.144H36.9479V42.2579H37.0205C37.182 42.262 37.4161 42.264 37.7228 42.264Z" fill="#0D1C28"/>
		<path d="M45.0747 42.8754C44.6913 42.7907 44.3563 42.7019 44.0697 42.6091C43.7832 42.5203 43.5188 42.4113 43.2767 42.2821C42.8367 42.5001 42.2091 42.7059 41.3938 42.8997L41.1941 42.4819C41.9125 42.3487 42.4715 42.1974 42.871 42.0279C42.5239 41.7776 42.2011 41.4588 41.9024 41.0713H41.7208V40.696H43.0527V40.2056H41.7692V38.0443C42.08 37.9797 42.417 37.8748 42.7802 37.7295L42.9316 38.1109C42.641 38.2239 42.3827 38.3107 42.1567 38.3712V38.8919H42.8529V39.2551H42.1567V39.8121H43.0527V37.4631L43.4764 37.4752V39.8121H44.4209V39.2551H43.6823V38.8919H44.4209V38.3349H43.6581V37.9535H44.8144V40.2056H43.4764V40.696H44.6751V41.0592C44.3724 41.479 44.0395 41.8099 43.6762 42.0521C44.0395 42.2055 44.5601 42.3407 45.2382 42.4577L45.0747 42.8754ZM41.5573 40.1995C41.4362 40.2641 41.3091 40.3267 41.1759 40.3872L41.0427 40.4538V42.2398C41.0427 42.3931 41.0245 42.5102 40.9882 42.5909C40.9519 42.6716 40.8873 42.7301 40.7945 42.7665C40.7057 42.8028 40.5745 42.827 40.401 42.8391L40.1528 42.8633L40.0317 42.4335L40.2981 42.4093C40.4353 42.3972 40.5241 42.3709 40.5644 42.3306C40.6088 42.2902 40.631 42.2115 40.631 42.0945V40.6354C40.3203 40.7767 40.0519 40.8857 39.8258 40.9624L39.7714 40.5083C39.9651 40.4397 40.2516 40.3247 40.631 40.1632V38.9887H39.959V38.571H40.631V37.4752L41.0427 37.4873V38.571H41.5815V38.9887H41.0427V39.9755C41.2566 39.8746 41.41 39.798 41.5028 39.7455L41.5331 39.9998L41.5573 40.1995ZM42.3685 41.0713C42.643 41.3982 42.9356 41.6545 43.2464 41.8402C43.5451 41.6626 43.8437 41.4063 44.1424 41.0713H42.3685Z" fill="#0D1C28"/>
		<path d="M46.4815 40.696C46.3403 40.696 46.2394 40.6738 46.1788 40.6294C46.1223 40.585 46.0941 40.4801 46.0941 40.3146C46.0941 40.1491 46.1223 40.0442 46.1788 39.9998C46.2394 39.9554 46.3403 39.9332 46.4815 39.9332C46.6187 39.9332 46.7176 39.9554 46.7782 39.9998C46.8387 40.0442 46.869 40.1491 46.869 40.3146C46.869 40.4801 46.8387 40.585 46.7782 40.6294C46.7176 40.6738 46.6187 40.696 46.4815 40.696Z" fill="#0D1C28"/>
		<path d="M52.5018 39.9029H50.9399V40.7868H52.6471V41.2227H50.9399V42.2277H53.1738V42.6454H48.2216V42.2277H50.4616V41.2227H48.7604V40.7868H50.4616V39.9029H48.8936V39.5457C48.7402 39.6426 48.5001 39.7798 48.1732 39.9574L47.931 39.5215C48.5525 39.2188 49.0671 38.906 49.4748 38.5831C49.8865 38.2562 50.2235 37.893 50.4858 37.4934H50.9096C51.1679 37.893 51.513 38.2643 51.9448 38.6073C52.3807 38.9504 52.8913 39.2612 53.4765 39.5397L53.2343 39.9513C52.968 39.802 52.7238 39.6567 52.5018 39.5154V39.9029ZM49.0268 39.461H52.417C51.626 38.9363 51.0529 38.4297 50.6977 37.9414C50.3102 38.4822 49.7533 38.9887 49.0268 39.461Z" fill="#0D1C28"/>
		<path d="M54.3324 42.9118V37.7295H59.0061V42.9118H58.546V42.5727H54.7804V42.9118H54.3324ZM54.7804 38.1351V42.1611H58.546V38.1351H54.7804ZM56.8509 40.2117V41.259H58.2615V41.6525H55.0468V41.259H56.4089V40.2117H55.2526V39.8242H56.4089V39.0735H55.1497V38.686H58.1586V39.0735H56.8509V39.8242H58.0738V40.2117H56.8509ZM57.6803 41.1924C57.535 40.918 57.3736 40.6697 57.196 40.4478L57.4926 40.2601C57.7025 40.5103 57.866 40.7464 57.983 40.9684L57.6803 41.1924Z" fill="#0D1C28"/>
		<path d="M63.3976 37.5418C63.6357 38.1553 63.9021 38.6659 64.1967 39.0735C64.4954 39.4771 64.895 39.8383 65.3954 40.1572L65.0261 40.5749C64.5499 40.2238 64.1503 39.8141 63.8274 39.3459C63.5086 38.8737 63.2261 38.3268 62.9799 37.7053L63.3976 37.5418ZM62.2231 37.7355C61.9809 38.2885 61.7004 38.797 61.3816 39.2612C61.0627 39.7213 60.6652 40.1491 60.1889 40.5446L59.8378 40.1874C60.3019 39.8403 60.6975 39.4408 61.0244 38.9887C61.3554 38.5327 61.6076 38.0665 61.7812 37.5902L62.2231 37.7355ZM63.4339 40.5749C63.6599 40.9059 63.8779 41.255 64.0878 41.6222C64.3017 41.9895 64.4853 42.3407 64.6387 42.6757L64.1846 42.936C64.0595 42.6373 63.9707 42.4355 63.9182 42.3306C63.4864 42.3548 62.9819 42.3911 62.4047 42.4395C61.8316 42.492 61.4401 42.5324 61.2302 42.5606C61.0244 42.5889 60.8246 42.6272 60.6309 42.6757L60.4977 42.2216C60.6188 42.1933 60.7035 42.1671 60.752 42.1429C60.8044 42.1146 60.8549 42.0702 60.9033 42.0097C61.1414 41.7393 61.3917 41.3639 61.654 40.8837C61.9164 40.3993 62.1444 39.919 62.3381 39.4428L62.7861 39.6305C62.6005 40.0825 62.3825 40.5345 62.1323 40.9866C61.8861 41.4386 61.6439 41.8099 61.4058 42.1005L63.7063 41.9189C63.5005 41.5274 63.2785 41.1561 63.0404 40.805L63.4339 40.5749Z" fill="#0D1C28"/>
		<path d="M71.2217 39.6184H69.0604C68.7819 39.8403 68.5297 40.024 68.3036 40.1693H70.7979V40.5567H67.892L67.7891 41.0774H70.2773C70.2732 41.1056 70.251 41.2772 70.2107 41.592C70.1703 41.9068 70.1441 42.0884 70.132 42.1368C70.0997 42.3144 70.0533 42.4476 69.9927 42.5364C69.9362 42.6292 69.8454 42.6979 69.7203 42.7422C69.5992 42.7866 69.4196 42.8169 69.1815 42.8331L68.4792 42.8815L68.34 42.4577L69.1331 42.4093C69.2783 42.4012 69.3813 42.3891 69.4418 42.373C69.5064 42.3568 69.5528 42.3265 69.5811 42.2821C69.6133 42.2337 69.6416 42.155 69.6658 42.046C69.6819 41.9815 69.7163 41.7877 69.7687 41.4648H67.2623L67.3834 40.7202C66.9395 40.9664 66.4652 41.1964 65.9607 41.4104L65.7428 40.9624C66.7518 40.5789 67.6155 40.1309 68.3339 39.6184H65.9486V39.2188H67.8556V38.5226H66.5177V38.1351H67.8556V37.4631L68.346 37.4813V38.1351H69.5629V38.5226H68.346V39.2188H68.8606C69.4378 38.7425 69.9201 38.2098 70.3075 37.6205L70.6708 37.8748C70.364 38.343 69.9806 38.791 69.5205 39.2188H71.2217V39.6184Z" fill="#0D1C28"/>
		<path d="M72.4832 40.696C72.3419 40.696 72.2411 40.6738 72.1805 40.6294C72.124 40.585 72.0958 40.4801 72.0958 40.3146C72.0958 40.1491 72.124 40.0442 72.1805 39.9998C72.2411 39.9554 72.3419 39.9332 72.4832 39.9332C72.6204 39.9332 72.7193 39.9554 72.7799 39.9998C72.8404 40.0442 72.8707 40.1491 72.8707 40.3146C72.8707 40.4801 72.8404 40.585 72.7799 40.6294C72.7193 40.6738 72.6204 40.696 72.4832 40.696Z" fill="#0D1C28"/>
		<path d="M76.6752 41.0592H74.8166L74.3565 42.3124H73.7995L75.3917 38.1109H76.1182L77.7044 42.3124H77.1292L76.6752 41.0592ZM76.4996 40.5749L75.7913 38.6194H75.7186L74.9982 40.5749H76.4996Z" fill="#0D1C28"/>
		<path d="M78.3279 38.1109H78.8727V42.3124H78.3279V38.1109Z" fill="#0D1C28"/>
		<path d="M85.1291 42.046V42.4456H82.2776V42.8875H81.8538V39.4488C81.8216 39.5013 81.7408 39.6204 81.6117 39.806L81.2545 39.5275C81.7025 38.9383 82.0274 38.2279 82.2292 37.3965L82.6833 37.4631C82.5824 37.8183 82.4814 38.1291 82.3805 38.3954H83.4279C83.3997 38.2622 83.3613 38.1149 83.3129 37.9535C83.2685 37.788 83.2301 37.6649 83.1978 37.5842L83.6156 37.5055C83.6479 37.5862 83.6902 37.7234 83.7427 37.9172C83.7992 38.1109 83.8396 38.2703 83.8638 38.3954H85.0201V38.8011H83.8093V39.6002H84.9111V39.9937H83.8093V40.7807H84.9111V41.1864H83.8093V42.046H85.1291ZM81.5572 40.1027L81.5875 40.3085C81.4139 40.3771 81.2162 40.4498 80.9942 40.5265V42.1671C80.9942 42.3245 80.972 42.4456 80.9276 42.5304C80.8872 42.6192 80.8166 42.6817 80.7157 42.718C80.6148 42.7584 80.4715 42.7846 80.2858 42.7967L80.0195 42.821L79.8923 42.3911L80.189 42.3669C80.2939 42.3588 80.3706 42.3447 80.419 42.3245C80.4675 42.3084 80.4998 42.2801 80.5159 42.2398C80.5361 42.1954 80.5462 42.1288 80.5462 42.04V40.6718C80.2071 40.7848 79.9186 40.8675 79.6804 40.92L79.5836 40.4841C79.7571 40.4518 80.078 40.363 80.5462 40.2177V38.9161H79.8257V38.4923H80.5462V37.4692L80.9942 37.4813V38.4923H81.6117V38.9161H80.9942V40.0724C81.2 40.0078 81.3776 39.9453 81.5269 39.8847L81.5572 40.1027ZM82.2776 39.6002H83.3734V38.8011H82.2776V39.6002ZM82.2776 40.7807H83.3734V39.9937H82.2776V40.7807ZM83.3734 41.1864H82.2776V42.046H83.3734V41.1864Z" fill="#0D1C28"/>
		<path d="M87.6135 38.7284H87.1897V38.3228H85.7791V37.9232H87.1897V37.4328L87.6135 37.451V37.9232H89.1149V37.4328L89.5327 37.451V37.9232H90.919V38.3228H89.5327V38.7405H89.1149V38.3228H87.6135V38.7284ZM87.7407 39.4367C87.5671 39.7112 87.3593 39.9856 87.1171 40.2601V42.8875H86.6872V40.6899C86.4532 40.9038 86.1686 41.142 85.8336 41.4043L85.5733 41.0229C86.2675 40.5386 86.8124 40.0099 87.2079 39.4367H85.7852V39.0372H87.4622C87.555 38.8677 87.6398 38.6881 87.7164 38.4984L88.1766 38.6134C88.1321 38.7102 88.0635 38.8515 87.9707 39.0372H91.0159V39.4367H87.7407ZM91.0764 41.0955V41.483H89.4539V42.1671C89.4539 42.3528 89.4358 42.488 89.3995 42.5727C89.3631 42.6615 89.2905 42.7261 89.1815 42.7665C89.0725 42.8109 88.899 42.8432 88.6609 42.8633L88.3945 42.8875L88.2431 42.4759L88.6003 42.4456C88.7335 42.4335 88.8284 42.4153 88.8849 42.3911C88.9414 42.3709 88.9777 42.3386 88.9938 42.2942C89.01 42.2499 89.0181 42.1772 89.0181 42.0763V41.483H87.438V41.0955H89.0181V40.8534L89.8959 40.3267H87.7528V39.9392H90.6405V40.2964L89.4539 41.0229V41.0955H91.0764Z" fill="#0D1C28"/>
		<path d="M43.742 19.7905L41.6352 23.3745C39.819 22.0184 38.2934 20.4443 37.0584 18.6281C35.8233 16.8119 34.6852 14.6324 33.6439 12.1382L36.6709 11C37.47 13.0584 38.3903 14.7293 39.48 16.0612C40.5697 17.3931 41.9743 18.6281 43.742 19.7905ZM28.389 11.1937L31.6824 12.2835C30.0114 16.3518 27.2508 20.1053 23.9574 23.2776L21.7295 20.0326C24.5628 17.9016 26.936 14.7777 28.389 11.1937ZM33.6681 24.3189L36.3803 22.6722C37.2521 23.8588 38.1965 25.2149 39.1894 26.7648C40.1823 28.3146 41.054 29.7191 41.7805 30.9784L38.923 33.0368C38.5598 32.3345 38.1965 31.6564 37.8333 31.0268C35.5812 31.1963 34.4188 31.269 34.3461 31.269C31.0285 31.4869 28.6553 31.6564 27.1781 31.8259C26.0158 31.947 25.1924 32.0681 24.6839 32.1892L23.6184 28.7747C24.5144 28.581 25.144 28.2419 25.7252 27.5397C26.4517 26.6679 27.2992 25.3844 28.2921 23.7135C29.285 22.0426 30.181 20.3232 30.9801 18.5797L34.3461 19.8389C33.4501 21.5583 32.5541 23.1808 31.6097 24.7548C30.6653 26.3046 29.8419 27.5397 29.1154 28.4599C31.3433 28.3388 33.6681 28.1935 36.0897 28.024C35.1695 26.5226 34.3704 25.2876 33.6681 24.3189Z" fill="#FF0000"/>
		<path d="M66.7807 17.272V20.0569H59.1526C58.6441 20.4443 58.1113 20.8318 57.5301 21.2435H65.5699V23.7862H54.1641L53.9461 24.9728H63.9959C63.7779 27.2733 63.5842 28.8716 63.4631 29.816C63.1483 31.947 62.2765 32.7462 59.8791 32.8672L55.8834 33.1094L54.8664 30.1792L58.184 29.9613C59.5159 29.8886 59.8791 29.7434 60.0971 29.0895C60.1455 28.9684 60.2424 28.4841 60.3634 27.685H49.9747L50.3621 25.3602C49.1029 25.9414 47.771 26.5226 46.3665 27.1038L45.0346 23.9072C48.4491 22.7691 51.355 21.4856 53.8008 20.0569H46.0759V17.272H52.7353V15.6979H48.11V12.9857H52.7353V11.0242L56.2709 11.1211V12.9857H60.4361V14.7777C61.3805 13.7364 62.2765 12.5983 63.0999 11.339L65.7637 13.2037C64.7224 14.6566 63.5842 16.0128 62.325 17.272H66.7807ZM59.5401 15.6979H56.2709V17.272H57.7965C58.3777 16.8119 58.9589 16.2791 59.5401 15.6979Z" fill="#FF0000"/>
		<path d="M91.1756 29.9855L90.11 33.061C87.2767 32.4798 85.1457 31.8259 83.3053 30.8573C81.5375 31.6564 79.1885 32.3829 76.2341 33.0852L75.0718 30.1308C77.2754 29.7918 79.0917 29.3801 80.472 28.92C79.576 28.1693 78.6558 27.1764 77.7355 25.9414H77.1544V23.3503H81.9007V22.4058H76.8638V12.7678C77.8324 12.5498 79.1401 12.1382 80.7868 11.5085L81.8039 14.245C80.9321 14.6324 80.2056 14.923 79.6486 15.0925V16.1581H81.3196V18.6523H79.6486V19.7663H81.9007V11.0484L84.7098 11.1453V19.7663H87.0104V18.6523H85.2184V16.1338H87.0104V15.0683H85.3152V12.3077H89.8679V22.4058H84.7098V23.3503H89.4804V25.9414C88.5844 27.1522 87.5673 28.1935 86.4534 29.0411C87.6642 29.4043 89.2383 29.7191 91.1756 29.9855ZM76.0404 21.1224L76.2099 23.1808L75.4834 23.4714L74.878 23.7377V30.2035C74.7812 32.4071 74.4906 32.6251 71.9963 32.9157L70.616 33.0852L69.7684 29.9129L70.8824 29.7676C71.6573 29.6707 71.851 29.5254 71.851 28.8231V24.9001L69.5263 25.7235L69.2114 22.3574C69.72 22.2121 70.616 21.9215 71.851 21.4614V17.9985H69.9137V14.8019H71.851V11.1453L74.878 11.2422V14.8019H76.2584V17.9985H74.878V20.3232L75.9678 19.8631L76.0404 21.1224ZM85.7511 25.9414H81.2469C81.9007 26.6437 82.5788 27.2249 83.3295 27.685C84.1771 27.1764 85.0004 26.5952 85.7511 25.9414Z" fill="#FF0000"/>
	</g>
	<defs>
		<filter id="filter0_d_74_3218" x="-5" y="0" width="385" height="54" filterUnits="userSpaceOnUse" color-interpolation-filters="sRGB">
			<feFlood flood-opacity="0" result="BackgroundImageFix"/>
			<feColorMatrix in="SourceAlpha" type="matrix" values="0 0 0 0 0 0 0 0 0 0 0 0 0 0 0 0 0 0 127 0" result="hardAlpha"/>
			<feOffset dy="2"/>
			<feGaussianBlur stdDeviation="2.5"/>
			<feComposite in2="hardAlpha" operator="out"/>
			<feColorMatrix type="matrix" values="0 0 0 0 0.294118 0 0 0 0 0.337255 0 0 0 0 0.403922 0 0 0 0.1 0"/>
			<feBlend mode="normal" in2="BackgroundImageFix" result="effect1_dropShadow_74_3218"/>
			<feBlend mode="normal" in="SourceGraphic" in2="effect1_dropShadow_74_3218" result="shape"/>
		</filter>
	</defs>
</svg>
