<svg width="64" height="64" viewBox="0 0 64 64" fill="none" xmlns="http://www.w3.org/2000/svg">
	<path d="M53.4978 52.96H10.5026C9.19982 52.9591 7.9506 52.4414 7.0291 51.5205C6.10759 50.5996 5.5891 49.3508 5.5874 48.048V15.952C5.5891 14.6492 6.10759 13.4003 7.0291 12.4794C7.9506 11.5585 9.19982 11.0408 10.5026 11.04H53.4978C54.8006 11.0408 56.0498 11.5585 56.9713 12.4794C57.8928 13.4003 58.4113 14.6492 58.413 15.952V48.048C58.4113 49.3508 57.8928 50.5996 56.9713 51.5205C56.0498 52.4414 54.8006 52.9591 53.4978 52.96ZM10.5026 13.92C9.96339 13.92 9.44621 14.134 9.06463 14.5149C8.68305 14.8959 8.46825 15.4128 8.4674 15.952V48.048C8.46825 48.5872 8.68305 49.104 9.06463 49.485C9.44621 49.866 9.96339 50.08 10.5026 50.08H53.4978C54.037 50.08 54.5542 49.866 54.9358 49.485C55.3174 49.104 55.5322 48.5872 55.533 48.048V15.952C55.5322 15.4128 55.3174 14.8959 54.9358 14.5149C54.5542 14.134 54.037 13.92 53.4978 13.92H10.5026Z" fill="#FF0000"/>
	<path d="M12.9598 48.32C12.6789 48.32 12.4041 48.2378 12.1693 48.0835C11.9345 47.9293 11.75 47.7097 11.6384 47.4519C11.5269 47.1941 11.4932 46.9093 11.5414 46.6325C11.5897 46.3558 11.7179 46.0992 11.9102 45.8944L20.355 36.8832C20.7134 36.3823 21.1871 35.975 21.7361 35.6956C22.285 35.4162 22.8931 35.273 23.5091 35.278C24.125 35.283 24.7307 35.4362 25.275 35.7244C25.8193 36.0127 26.2863 36.4277 26.6366 36.9344L29.7598 40.864C29.898 41.0084 30.0047 41.18 30.073 41.3678C30.1413 41.5557 30.1698 41.7557 30.1566 41.9552C30.1434 42.1546 30.0888 42.3491 29.9963 42.5263C29.9038 42.7035 29.7754 42.8595 29.6193 42.9844C29.4632 43.1093 29.2828 43.2003 29.0896 43.2516C28.8964 43.303 28.6947 43.3136 28.4972 43.2827C28.2997 43.2518 28.1108 43.1801 27.9425 43.0722C27.7742 42.9643 27.6303 42.8226 27.5198 42.656L24.3518 38.688L24.2782 38.5888C24.1906 38.4568 24.0717 38.3485 23.9321 38.2736C23.7925 38.1987 23.6366 38.1595 23.4782 38.1595C23.3197 38.1595 23.1638 38.1987 23.0242 38.2736C22.8846 38.3485 22.7657 38.4568 22.6782 38.5888C22.6337 38.6542 22.5845 38.7162 22.531 38.7744L14.0094 47.8656C13.8748 48.0092 13.7123 48.1236 13.5317 48.2018C13.3512 48.2799 13.1565 48.3202 12.9598 48.32Z" fill="#FF0000"/>
	<path d="M53.6002 48.32C53.3705 48.32 53.144 48.2651 52.9398 48.1599C52.7355 48.0547 52.5593 47.9022 52.4258 47.7152L40.1474 30.4608C40.1218 30.4232 40.0972 30.3847 40.0738 30.3456C39.9901 30.1979 39.8687 30.075 39.722 29.9895C39.5752 29.904 39.4084 29.859 39.2386 29.859C39.0688 29.859 38.902 29.904 38.7553 29.9895C38.6086 30.075 38.4872 30.1979 38.4034 30.3456C38.3893 30.3734 38.3733 30.4001 38.3554 30.4256L30.477 42.24C30.2606 42.5471 29.9326 42.7575 29.5632 42.8261C29.1938 42.8948 28.8122 42.8164 28.4998 42.6076C28.1874 42.3988 27.969 42.0761 27.8912 41.7085C27.8134 41.3409 27.8824 40.9575 28.0834 40.64L35.9362 28.8608C36.2753 28.2897 36.7568 27.8164 37.3335 27.487C37.9103 27.1576 38.5626 26.9834 39.2268 26.9815C39.891 26.9795 40.5443 27.1499 41.1229 27.476C41.7016 27.802 42.1858 28.2725 42.5282 28.8416L54.7746 46.0448C54.928 46.2603 55.0191 46.5139 55.0379 46.7777C55.0567 47.0415 55.0025 47.3055 54.8812 47.5405C54.7598 47.7756 54.5761 47.9726 54.3502 48.1102C54.1242 48.2477 53.8647 48.3203 53.6002 48.32ZM20.3938 30.8032C19.0647 30.8032 17.7655 30.4091 16.6604 29.6707C15.5553 28.9323 14.694 27.8828 14.1854 26.6549C13.6767 25.4269 13.5437 24.0758 13.803 22.7722C14.0622 21.4687 14.7023 20.2713 15.6421 19.3315C16.5819 18.3917 17.7793 17.7516 19.0828 17.4923C20.3864 17.2331 21.7375 17.3661 22.9655 17.8748C24.1934 18.3834 25.2429 19.2447 25.9813 20.3498C26.7197 21.4549 27.1138 22.7541 27.1138 24.0832C27.1138 25.8655 26.4058 27.5747 25.1456 28.835C23.8853 30.0952 22.1761 30.8032 20.3938 30.8032ZM20.3938 20.2432C19.6344 20.2432 18.8919 20.4684 18.2604 20.8904C17.629 21.3123 17.1368 21.9121 16.8461 22.6137C16.5555 23.3154 16.4794 24.0875 16.6276 24.8324C16.7758 25.5773 17.1415 26.2615 17.6785 26.7985C18.2156 27.3355 18.8998 27.7013 19.6447 27.8494C20.3896 27.9976 21.1617 27.9216 21.8633 27.6309C22.565 27.3403 23.1647 26.8481 23.5867 26.2166C24.0086 25.5851 24.2338 24.8427 24.2338 24.0832C24.2321 23.0659 23.8268 22.0908 23.1069 21.3721C22.3869 20.6533 21.4112 20.2496 20.3938 20.2496V20.2432Z" fill="#FF0000"/>
</svg>
