<svg width="14" height="14" viewBox="0 0 14 14" fill="none" xmlns="http://www.w3.org/2000/svg">
	<path fill-rule="evenodd" clip-rule="evenodd" d="M7.00001 1.66671C4.05449 1.66671 1.66668 4.05452 1.66668 7.00004C1.66668 9.94556 4.05449 12.3334 7.00001 12.3334C9.94553 12.3334 12.3333 9.94556 12.3333 7.00004C12.3333 4.05452 9.94553 1.66671 7.00001 1.66671ZM0.333344 7.00004C0.333344 3.31814 3.31811 0.333374 7.00001 0.333374C10.6819 0.333374 13.6667 3.31814 13.6667 7.00004C13.6667 10.6819 10.6819 13.6667 7.00001 13.6667C3.31811 13.6667 0.333344 10.6819 0.333344 7.00004Z" fill="#4B5667"/>
	<path fill-rule="evenodd" clip-rule="evenodd" d="M6.33334 10.3334V5.66673H7.66668V10.3334H6.33334Z" fill="#4B5667"/>
	<path fill-rule="evenodd" clip-rule="evenodd" d="M7.66668 3.66673V5.00006H6.33334V3.66673H7.66668Z" fill="#4B5667"/>
</svg>
