<svg width="74" height="32" viewBox="0 0 74 32" fill="none" xmlns="http://www.w3.org/2000/svg">
	<path d="M2.6923 26.6508H6.69403V28.0493H2.6923V26.6508ZM6.23997 27.2138V26.9474H3.15241V27.2138H6.23997ZM3.15241 27.4862V27.7587H6.23997V27.4862H3.15241ZM2.00214 28.6547V28.3338H7.38419V28.6547H2.00214ZM6.84538 31.1066H4.91414V31.4517H7.25706V31.7725H2.12927V31.4517H4.47824V31.1066H2.54095V30.7857H4.47824V30.4346H2.68624V28.9695H6.69403V30.4346H4.91414V30.7857H6.84538V31.1066ZM4.47824 29.5567V29.2601H3.1403V29.5567H4.47824ZM4.91414 29.5567H6.23997V29.2601H4.91414V29.5567ZM3.1403 29.8413V30.1379H4.47824V29.8413H3.1403ZM4.91414 29.8413V30.1379H6.23997V29.8413H4.91414Z" fill="#0D1C28"/>
	<path d="M13.3618 29.024C13.1116 29.3509 12.7907 29.6576 12.3992 29.9442V31.0581C12.3992 31.2519 12.371 31.4012 12.3145 31.5061C12.258 31.6111 12.155 31.6878 12.0057 31.7362C11.8604 31.7887 11.6445 31.821 11.3579 31.8331L10.9341 31.8512L10.7525 31.4032L11.3034 31.379C11.4931 31.3709 11.6324 31.3528 11.7212 31.3245C11.81 31.3003 11.8685 31.2579 11.8967 31.1974C11.929 31.1328 11.9452 31.0339 11.9452 30.9007V30.253C10.9846 30.8503 9.69306 31.3528 8.07057 31.7604L7.87684 31.3185C9.32174 31.0158 10.4962 30.6122 11.4003 30.1077H8.08268V29.7081H8.8697V27.0201H9.9897C10.1108 26.8021 10.2077 26.5923 10.2803 26.3905L10.7828 26.4813C10.7384 26.5902 10.6516 26.7699 10.5225 27.0201H12.3992V29.4296C12.6616 29.2117 12.8896 28.9816 13.0833 28.7394L13.3618 29.024ZM11.9452 27.9161V27.4136H9.32376V27.9161H11.9452ZM9.32376 28.8121H11.9452V28.3035H9.32376V28.8121ZM11.9452 29.1995H9.32376V29.7081H11.9452V29.1995Z" fill="#0D1C28"/>
	<path d="M14.7262 27.4741V28.128H14.2782V27.0625H16.494C16.4254 26.8082 16.3629 26.6145 16.3064 26.4813L16.7362 26.3784C16.8169 26.6003 16.8896 26.8284 16.9541 27.0625H18.9822V28.1219H18.5403V27.4741H14.7262ZM17.723 31.264C18.2033 31.264 18.736 31.2519 19.3213 31.2277L19.1941 31.6696C18.6533 31.6938 18.1407 31.7059 17.6564 31.7059C17.3618 31.7059 17.1378 31.7039 16.9844 31.6999C16.5647 31.6918 16.1974 31.6151 15.8826 31.4698C15.5718 31.3245 15.3115 31.1005 15.1016 30.7978C14.928 31.1772 14.6576 31.5586 14.2904 31.942L13.8908 31.6454C14.1451 31.3952 14.3469 31.159 14.4962 30.9371C14.6455 30.7151 14.7585 30.4729 14.8352 30.2106C14.9119 29.9442 14.9664 29.6253 14.9987 29.254L15.4769 29.2843C15.4326 29.7041 15.366 30.0552 15.2772 30.3377C15.4225 30.5799 15.594 30.7716 15.7918 30.9128C15.9895 31.0501 16.2236 31.1469 16.494 31.2034V28.7455H14.4356V28.3399H18.8309V28.7455H16.9481V29.7262H18.728V30.144H16.9481V31.2579H17.0207C17.1822 31.262 17.4163 31.264 17.723 31.264Z" fill="#0D1C28"/>
	<path d="M25.0749 31.8754C24.6915 31.7907 24.3565 31.7019 24.0699 31.6091C23.7834 31.5203 23.519 31.4113 23.2768 31.2821C22.8369 31.5001 22.2093 31.7059 21.394 31.8997L21.1942 31.4819C21.9127 31.3487 22.4717 31.1974 22.8712 31.0279C22.5241 30.7776 22.2012 30.4588 21.9026 30.0713H21.7209V29.696H23.0528V29.2056H21.7694V27.0443C22.0802 26.9797 22.4172 26.8748 22.7804 26.7295L22.9318 27.1109C22.6412 27.2239 22.3829 27.3107 22.1568 27.3712V27.8919H22.8531V28.2551H22.1568V28.8121H23.0528V26.4631L23.4766 26.4752V28.8121H24.4211V28.2551H23.6825V27.8919H24.4211V27.3349H23.6582V26.9535H24.8146V29.2056H23.4766V29.696H24.6753V30.0592C24.3726 30.479 24.0396 30.8099 23.6764 31.0521C24.0396 31.2055 24.5603 31.3407 25.2384 31.4577L25.0749 31.8754ZM21.5575 29.1995C21.4364 29.2641 21.3093 29.3267 21.1761 29.3872L21.0429 29.4538V31.2398C21.0429 31.3931 21.0247 31.5102 20.9884 31.5909C20.9521 31.6716 20.8875 31.7301 20.7947 31.7665C20.7059 31.8028 20.5747 31.827 20.4012 31.8391L20.1529 31.8633L20.0319 31.4335L20.2982 31.4093C20.4355 31.3972 20.5243 31.3709 20.5646 31.3306C20.609 31.2902 20.6312 31.2115 20.6312 31.0945V29.6354C20.3204 29.7767 20.052 29.8857 19.826 29.9624L19.7715 29.5083C19.9653 29.4397 20.2518 29.3247 20.6312 29.1632V27.9887H19.9592V27.571H20.6312V26.4752L21.0429 26.4873V27.571H21.5817V27.9887H21.0429V28.9755C21.2568 28.8746 21.4102 28.798 21.503 28.7455L21.5333 28.9998L21.5575 29.1995ZM22.3687 30.0713C22.6432 30.3982 22.9358 30.6545 23.2466 30.8402C23.5452 30.6626 23.8439 30.4063 24.1426 30.0713H22.3687Z" fill="#0D1C28"/>
	<path d="M26.4817 29.696C26.3404 29.696 26.2395 29.6738 26.179 29.6294C26.1225 29.585 26.0942 29.4801 26.0942 29.3146C26.0942 29.1491 26.1225 29.0442 26.179 28.9998C26.2395 28.9554 26.3404 28.9332 26.4817 28.9332C26.6189 28.9332 26.7178 28.9554 26.7784 28.9998C26.8389 29.0442 26.8692 29.1491 26.8692 29.3146C26.8692 29.4801 26.8389 29.585 26.7784 29.6294C26.7178 29.6738 26.6189 29.696 26.4817 29.696Z" fill="#0D1C28"/>
	<path d="M32.502 28.9029H30.94V29.7868H32.6473V30.2227H30.94V31.2277H33.174V31.6454H28.2218V31.2277H30.4618V30.2227H28.7606V29.7868H30.4618V28.9029H28.8938V28.5457C28.7404 28.6426 28.5003 28.7798 28.1733 28.9574L27.9312 28.5215C28.5527 28.2188 29.0673 27.906 29.475 27.5831C29.8866 27.2562 30.2236 26.893 30.486 26.4934H30.9098C31.1681 26.893 31.5132 27.2643 31.945 27.6073C32.3809 27.9504 32.8915 28.2612 33.4767 28.5397L33.2345 28.9513C32.9682 28.802 32.724 28.6567 32.502 28.5154V28.9029ZM29.027 28.461H32.4172C31.6262 27.9363 31.0531 27.4297 30.6979 26.9414C30.3104 27.4822 29.7534 27.9887 29.027 28.461Z" fill="#0D1C28"/>
	<path d="M34.3326 31.9118V26.7295H39.0063V31.9118H38.5462V31.5727H34.7806V31.9118H34.3326ZM34.7806 27.1351V31.1611H38.5462V27.1351H34.7806ZM36.8511 29.2117V30.259H38.2617V30.6525H35.047V30.259H36.4091V29.2117H35.2528V28.8242H36.4091V28.0735H35.1499V27.686H38.1587V28.0735H36.8511V28.8242H38.074V29.2117H36.8511ZM37.6805 30.1924C37.5352 29.918 37.3737 29.6697 37.1962 29.4478L37.4928 29.2601C37.7027 29.5103 37.8661 29.7464 37.9832 29.9684L37.6805 30.1924Z" fill="#0D1C28"/>
	<path d="M43.3978 26.5418C43.6359 27.1553 43.9023 27.6659 44.1969 28.0735C44.4956 28.4771 44.8951 28.8383 45.3956 29.1572L45.0263 29.5749C44.5501 29.2238 44.1505 28.8141 43.8276 28.3459C43.5088 27.8737 43.2262 27.3268 42.98 26.7053L43.3978 26.5418ZM42.2233 26.7355C41.9811 27.2885 41.7006 27.797 41.3818 28.2612C41.0629 28.7213 40.6654 29.1491 40.1891 29.5446L39.838 29.1874C40.3021 28.8403 40.6977 28.4408 41.0246 27.9887C41.3555 27.5327 41.6078 27.0665 41.7813 26.5902L42.2233 26.7355ZM43.4341 29.5749C43.6601 29.9059 43.8781 30.255 44.0879 30.6222C44.3018 30.9895 44.4855 31.3407 44.6389 31.6757L44.1848 31.936C44.0597 31.6373 43.9709 31.4355 43.9184 31.3306C43.4866 31.3548 42.9821 31.3911 42.4049 31.4395C41.8318 31.492 41.4403 31.5324 41.2304 31.5606C41.0246 31.5889 40.8248 31.6272 40.6311 31.6757L40.4979 31.2216C40.619 31.1933 40.7037 31.1671 40.7522 31.1429C40.8046 31.1146 40.8551 31.0702 40.9035 31.0097C41.1416 30.7393 41.3919 30.3639 41.6542 29.8837C41.9165 29.3993 42.1446 28.919 42.3383 28.4428L42.7863 28.6305C42.6007 29.0825 42.3827 29.5345 42.1325 29.9866C41.8863 30.4386 41.6441 30.8099 41.406 31.1005L43.7065 30.9189C43.5007 30.5274 43.2787 30.1561 43.0406 29.805L43.4341 29.5749Z" fill="#0D1C28"/>
	<path d="M51.2219 28.6184H49.0606C48.7821 28.8403 48.5298 29.024 48.3038 29.1693H50.7981V29.5567H47.8922L47.7892 30.0774H50.2775C50.2734 30.1056 50.2512 30.2772 50.2109 30.592C50.1705 30.9068 50.1443 31.0884 50.1322 31.1368C50.0999 31.3144 50.0535 31.4476 49.9929 31.5364C49.9364 31.6292 49.8456 31.6979 49.7205 31.7422C49.5994 31.7866 49.4198 31.8169 49.1817 31.8331L48.4794 31.8815L48.3402 31.4577L49.1332 31.4093C49.2785 31.4012 49.3815 31.3891 49.442 31.373C49.5066 31.3568 49.553 31.3265 49.5812 31.2821C49.6135 31.2337 49.6418 31.155 49.666 31.046C49.6821 30.9815 49.7164 30.7877 49.7689 30.4648H47.2625L47.3836 29.7202C46.9396 29.9664 46.4654 30.1964 45.9609 30.4104L45.743 29.9624C46.752 29.5789 47.6157 29.1309 48.3341 28.6184H45.9488V28.2188H47.8558V27.5226H46.5179V27.1351H47.8558V26.4631L48.3462 26.4813V27.1351H49.5631V27.5226H48.3462V28.2188H48.8608C49.438 27.7425 49.9203 27.2098 50.3077 26.6205L50.671 26.8748C50.3642 27.343 49.9808 27.791 49.5207 28.2188H51.2219V28.6184Z" fill="#0D1C28"/>
	<path d="M52.4834 29.696C52.3421 29.696 52.2412 29.6738 52.1807 29.6294C52.1242 29.585 52.0959 29.4801 52.0959 29.3146C52.0959 29.1491 52.1242 29.0442 52.1807 28.9998C52.2412 28.9554 52.3421 28.9332 52.4834 28.9332C52.6206 28.9332 52.7195 28.9554 52.78 28.9998C52.8406 29.0442 52.8709 29.1491 52.8709 29.3146C52.8709 29.4801 52.8406 29.585 52.78 29.6294C52.7195 29.6738 52.6206 29.696 52.4834 29.696Z" fill="#0D1C28"/>
	<path d="M56.6754 30.0592H54.8168L54.3567 31.3124H53.7997L55.3919 27.1109H56.1184L57.7045 31.3124H57.1294L56.6754 30.0592ZM56.4998 29.5749L55.7915 27.6194H55.7188L54.9984 29.5749H56.4998Z" fill="#0D1C28"/>
	<path d="M58.3281 27.1109H58.8729V31.3124H58.3281V27.1109Z" fill="#0D1C28"/>
	<path d="M65.1293 31.046V31.4456H62.2778V31.8875H61.854V28.4488C61.8217 28.5013 61.741 28.6204 61.6119 28.806L61.2547 28.5275C61.7027 27.9383 62.0276 27.2279 62.2294 26.3965L62.6834 26.4631C62.5825 26.8183 62.4816 27.1291 62.3807 27.3954H63.4281C63.3998 27.2622 63.3615 27.1149 63.3131 26.9535C63.2687 26.788 63.2303 26.6649 63.198 26.5842L63.6158 26.5055C63.648 26.5862 63.6904 26.7234 63.7429 26.9172C63.7994 27.1109 63.8398 27.2703 63.864 27.3954H65.0203V27.8011H63.8095V28.6002H64.9113V28.9937H63.8095V29.7807H64.9113V30.1864H63.8095V31.046H65.1293ZM61.5574 29.1027L61.5876 29.3085C61.4141 29.3771 61.2163 29.4498 60.9944 29.5265V31.1671C60.9944 31.3245 60.9721 31.4456 60.9278 31.5304C60.8874 31.6192 60.8168 31.6817 60.7159 31.718C60.615 31.7584 60.4717 31.7846 60.286 31.7967L60.0196 31.821L59.8925 31.3911L60.1892 31.3669C60.2941 31.3588 60.3708 31.3447 60.4192 31.3245C60.4676 31.3084 60.4999 31.2801 60.5161 31.2398C60.5363 31.1954 60.5464 31.1288 60.5464 31.04V29.6718C60.2073 29.7848 59.9188 29.8675 59.6806 29.92L59.5838 29.4841C59.7573 29.4518 60.0782 29.363 60.5464 29.2177V27.9161H59.8259V27.4923H60.5464V26.4692L60.9944 26.4813V27.4923H61.6119V27.9161H60.9944V29.0724C61.2002 29.0078 61.3778 28.9453 61.5271 28.8847L61.5574 29.1027ZM62.2778 28.6002H63.3736V27.8011H62.2778V28.6002ZM62.2778 29.7807H63.3736V28.9937H62.2778V29.7807ZM63.3736 30.1864H62.2778V31.046H63.3736V30.1864Z" fill="#0D1C28"/>
	<path d="M67.6137 27.7284H67.1899V27.3228H65.7793V26.9232H67.1899V26.4328L67.6137 26.451V26.9232H69.1151V26.4328L69.5328 26.451V26.9232H70.9192V27.3228H69.5328V27.7405H69.1151V27.3228H67.6137V27.7284ZM67.7408 28.4367C67.5673 28.7112 67.3594 28.9856 67.1173 29.2601V31.8875H66.6874V29.6899C66.4533 29.9038 66.1688 30.142 65.8338 30.4043L65.5735 30.0229C66.2677 29.5386 66.8125 29.0099 67.2081 28.4367H65.7854V28.0372H67.4623C67.5552 27.8677 67.6399 27.6881 67.7166 27.4984L68.1767 27.6134C68.1323 27.7102 68.0637 27.8515 67.9709 28.0372H71.0161V28.4367H67.7408ZM71.0766 30.0955V30.483H69.4541V31.1671C69.4541 31.3528 69.436 31.488 69.3997 31.5727C69.3633 31.6615 69.2907 31.7261 69.1817 31.7665C69.0727 31.8109 68.8992 31.8432 68.6611 31.8633L68.3947 31.8875L68.2433 31.4759L68.6005 31.4456C68.7337 31.4335 68.8286 31.4153 68.8851 31.3911C68.9416 31.3709 68.9779 31.3386 68.994 31.2942C69.0102 31.2499 69.0182 31.1772 69.0182 31.0763V30.483H67.4381V30.0955H69.0182V29.8534L69.8961 29.3267H67.753V28.9392H70.6407V29.2964L69.4541 30.0229V30.0955H71.0766Z" fill="#0D1C28"/>
	<path d="M23.7423 8.79049L21.6355 12.3745C19.8193 11.0184 18.2936 9.44432 17.0586 7.62811C15.8236 5.81189 14.6854 3.63243 13.6441 1.13816L16.6711 0C17.4703 2.05838 18.3905 3.7293 19.4802 5.06119C20.57 6.39308 21.9745 7.62811 23.7423 8.79049ZM8.3892 0.19373L11.6826 1.28346C10.0117 5.35178 7.25103 9.1053 3.95763 12.2776L1.72974 9.03265C4.56303 6.90162 6.93622 3.77773 8.3892 0.19373ZM13.6683 13.3189L16.3805 11.6722C17.2523 12.8588 18.1968 14.2149 19.1896 15.7648C20.1825 17.3146 21.0543 18.7191 21.7808 19.9784L18.9233 22.0368C18.56 21.3345 18.1968 20.6564 17.8335 20.0268C15.5814 20.1963 14.419 20.269 14.3464 20.269C11.0288 20.4869 8.65557 20.6564 7.17839 20.8259C6.01601 20.947 5.19266 21.0681 4.68412 21.1892L3.6186 17.7747C4.5146 17.581 5.14422 17.2419 5.72541 16.5397C6.4519 15.6679 7.29947 14.3844 8.29233 12.7135C9.2852 11.0426 10.1812 9.32324 10.9803 7.57968L14.3464 8.83892C13.4504 10.5583 12.5544 12.1808 11.61 13.7548C10.6655 15.3046 9.84217 16.5397 9.11568 17.4599C11.3436 17.3388 13.6683 17.1935 16.09 17.024C15.1697 15.5226 14.3706 14.2876 13.6683 13.3189Z" fill="#FF0000"/>
	<path d="M46.781 6.272V9.05686H39.1529C38.6443 9.44432 38.1116 9.83178 37.5304 10.2435H45.5702V12.7862H34.1643L33.9464 13.9728H43.9961C43.7782 16.2733 43.5844 17.8716 43.4634 18.816C43.1486 20.947 42.2768 21.7462 39.8794 21.8672L35.8837 22.1094L34.8666 19.1792L38.1842 18.9613C39.5161 18.8886 39.8794 18.7434 40.0973 18.0895C40.1457 17.9684 40.2426 17.4841 40.3637 16.685H29.9749L30.3624 14.3602C29.1031 14.9414 27.7713 15.5226 26.3667 16.1038L25.0348 12.9072C28.4493 11.7691 31.3553 10.4856 33.8011 9.05686H26.0761V6.272H32.7356V4.69795H28.1103V1.98573H32.7356V0.0242159L36.2711 0.121081V1.98573H40.4363V3.77773C41.3808 2.73643 42.2768 1.59827 43.1001 0.339027L45.7639 2.20368C44.7226 3.65665 43.5844 5.01276 42.3252 6.272H46.781ZM39.5403 4.69795H36.2711V6.272H37.7968C38.378 5.81189 38.9591 5.27913 39.5403 4.69795Z" fill="#FF0000"/>
	<path d="M71.1758 18.9855L70.1103 22.061C67.277 21.4798 65.146 20.8259 63.3055 19.8573C61.5377 20.6564 59.1888 21.3829 56.2344 22.0852L55.072 19.1308C57.2757 18.7918 59.0919 18.3801 60.4722 17.92C59.5762 17.1693 58.656 16.1764 57.7358 14.9414H57.1546V12.3503H61.901V11.4058H56.864V1.76778C57.8327 1.54984 59.1403 1.13816 60.787 0.508541L61.8041 3.24497C60.9323 3.63243 60.2059 3.92303 59.6489 4.09254V5.15805H61.3198V7.65232H59.6489V8.76627H61.901V0.0484333L64.7101 0.145297V8.76627H67.0106V7.65232H65.2186V5.13384H67.0106V4.06833H65.3155V1.30768H69.8681V11.4058H64.7101V12.3503H69.4807V14.9414C68.5847 16.1522 67.5676 17.1935 66.4536 18.0411C67.6644 18.4043 69.2385 18.7191 71.1758 18.9855ZM56.0407 10.1224L56.2102 12.1808L55.4837 12.4714L54.8783 12.7377V19.2035C54.7814 21.4071 54.4908 21.6251 51.9966 21.9157L50.6162 22.0852L49.7687 18.9129L50.8826 18.7676C51.6575 18.6707 51.8513 18.5254 51.8513 17.8231V13.9001L49.5265 14.7235L49.2117 11.3574C49.7202 11.2121 50.6162 10.9215 51.8513 10.4614V6.99849H49.914V3.80195H51.8513V0.145297L54.8783 0.242162V3.80195H56.2586V6.99849H54.8783V9.32324L55.968 8.86314L56.0407 10.1224ZM65.7514 14.9414H61.2471C61.901 15.6437 62.579 16.2249 63.3297 16.685C64.1773 16.1764 65.0007 15.5952 65.7514 14.9414Z" fill="#FF0000"/>
</svg>
