<svg width="20" height="20" viewBox="0 0 20 20" fill="none" xmlns="http://www.w3.org/2000/svg">
<path d="M10 0.5C6.02588 0.5 2.7737 3.59098 2.5164 7.5H2C1.17157 7.5 0.5 8.17157 0.5 9V12C0.5 12.8284 1.17157 13.5 2 13.5H4.5V8C4.5 4.96243 6.96243 2.5 10 2.5C13.0376 2.5 15.5 4.96243 15.5 8V12C15.5 13.9485 14.4863 15.6618 12.9563 16.639C12.7947 15.985 12.204 15.5 11.5 15.5H8.5C7.67157 15.5 7 16.1716 7 17V18C7 18.8284 7.67157 19.5 8.5 19.5H10C10.8034 19.5 11.5792 19.3733 12.3074 19.1381L13 18.9143V18.8756C15.2058 17.9118 16.8593 15.9176 17.35 13.5H18C18.8284 13.5 19.5 12.8284 19.5 12V9C19.5 8.17157 18.8284 7.5 18 7.5H17.4836C17.2263 3.59098 13.9741 0.5 10 0.5Z" fill="#4B5667"/>
</svg>
