<svg width="64" height="64" viewBox="0 0 64 64" fill="none" xmlns="http://www.w3.org/2000/svg">
	<g clip-path="url(#clip0_74_3254)">
		<path d="M55.4103 46.0434H18.8601C18.6875 46.0434 18.5165 46.0773 18.357 46.1434C18.1975 46.2094 18.0526 46.3062 17.9305 46.4283C17.8084 46.5504 17.7116 46.6953 17.6455 46.8548C17.5794 47.0143 17.5454 47.1852 17.5454 47.3578C17.5454 47.5305 17.5794 47.7014 17.6455 47.8609C17.7116 48.0204 17.8084 48.1653 17.9305 48.2874C18.0526 48.4094 18.1975 48.5063 18.357 48.5723C18.5165 48.6383 18.6875 48.6723 18.8601 48.6723H55.4103C55.5829 48.6723 55.7539 48.6383 55.9134 48.5723C56.0729 48.5063 56.2178 48.4094 56.3399 48.2874C56.462 48.1653 56.5588 48.0204 56.6249 47.8609C56.691 47.7014 56.725 47.5305 56.725 47.3578C56.725 47.1852 56.691 47.0143 56.6249 46.8548C56.5588 46.6953 56.462 46.5504 56.3399 46.4283C56.2178 46.3062 56.0729 46.2094 55.9134 46.1434C55.7539 46.0773 55.5829 46.0434 55.4103 46.0434ZM37.8645 35.5108H46.6416C46.9914 35.5067 47.3259 35.3668 47.5745 35.1207C47.6955 35.0013 47.7909 34.8585 47.8551 34.7011C47.9192 34.5437 47.9507 34.3748 47.9476 34.2049C47.9533 34.0294 47.9237 33.8546 47.8608 33.6908C47.7978 33.5269 47.7026 33.3774 47.5809 33.2509C47.4592 33.1244 47.3133 33.0236 47.152 32.9544C46.9907 32.8852 46.8172 32.8491 46.6416 32.848H37.8645C37.5159 32.8481 37.1817 32.9866 36.9352 33.2331C36.6888 33.4796 36.5503 33.8139 36.5503 34.1625C36.5503 34.511 36.6888 34.8453 36.9352 35.0918C37.1817 35.3383 37.5159 35.4768 37.8645 35.4769V35.5108ZM37.8645 28.2093H52.4846C52.8331 28.2092 53.1674 28.0707 53.4139 27.8242C53.6603 27.5777 53.7988 27.2434 53.7988 26.8948C53.7988 26.5463 53.6603 26.212 53.4139 25.9655C53.1674 25.719 52.8331 25.5805 52.4846 25.5804H37.8645C37.6919 25.5803 37.5209 25.6143 37.3614 25.6804C37.2019 25.7464 37.057 25.8432 36.9349 25.9653C36.8128 26.0873 36.716 26.2323 36.6499 26.3918C36.5838 26.5512 36.5498 26.7222 36.5498 26.8948C36.5498 27.0675 36.5838 27.2384 36.6499 27.3979C36.716 27.5574 36.8128 27.7023 36.9349 27.8244C37.057 27.9464 37.2019 28.0433 37.3614 28.1093C37.5209 28.1753 37.6919 28.2093 37.8645 28.2093Z" fill="#FF0000"/>
		<path d="M23.2447 25.5719C22.1176 25.5719 21.0158 25.9061 20.0786 26.5323C19.1414 27.1585 18.411 28.0485 17.9797 29.0898C17.5484 30.1312 17.4355 31.277 17.6554 32.3824C17.8753 33.4879 18.418 34.5033 19.215 35.3003C20.012 36.0973 21.0274 36.6401 22.1329 36.8599C23.2384 37.0798 24.3842 36.967 25.4255 36.5357C26.4668 36.1043 27.3568 35.3739 27.983 34.4367C28.6092 33.4996 28.9434 32.3978 28.9434 31.2707C28.9412 29.76 28.3401 28.3118 27.2718 27.2435C26.2036 26.1753 24.7554 25.5741 23.2447 25.5719ZM23.2447 34.3405C22.7392 34.3391 22.242 34.2128 21.797 33.9729C21.3521 33.7331 20.9733 33.3871 20.6942 32.9656C20.4151 32.5442 20.2444 32.0604 20.1973 31.5571C20.1501 31.0539 20.2279 30.5468 20.4239 30.0808C20.6198 29.6149 20.9277 29.2045 21.3203 28.8862C21.7129 28.5678 22.178 28.3514 22.6744 28.256C23.1708 28.1606 23.683 28.1892 24.1657 28.3394C24.6483 28.4895 25.0864 28.7565 25.4411 29.1167C25.9984 29.6971 26.3033 30.4746 26.2891 31.2792C26.2869 32.0875 25.966 32.8623 25.396 33.4355C24.826 34.0086 24.053 34.3339 23.2447 34.3405Z" fill="#FF0000"/>
		<path d="M59.7862 16.7863H13.0087C12.4519 16.7863 11.9005 16.8959 11.3861 17.109C10.8716 17.3221 10.4042 17.6344 10.0105 18.0282C9.61673 18.4219 9.30441 18.8893 9.09132 19.4038C8.87823 19.9182 8.76855 20.4696 8.76855 21.0264V53.2008C8.76855 54.3253 9.21528 55.4038 10.0105 56.199C10.8057 56.9942 11.8842 57.4409 13.0087 57.4409H59.7862C59.9613 57.4428 60.1349 57.4092 60.2967 57.3421C60.4585 57.2751 60.605 57.176 60.7275 57.0508C60.8487 56.9298 60.9442 56.7855 61.0083 56.6267C61.0725 56.4679 61.1038 56.2977 61.1006 56.1265C61.1017 55.9531 61.0685 55.7813 61.003 55.6208C60.9374 55.4604 60.8408 55.3145 60.7186 55.1915C60.5964 55.0686 60.4512 54.971 60.2911 54.9044C60.1311 54.8378 59.9595 54.8035 59.7862 54.8035H13.0087C12.5836 54.8035 12.176 54.6347 11.8754 54.3341C11.5748 54.0335 11.4059 53.6258 11.4059 53.2008V21.0264C11.4059 20.6013 11.5748 20.1937 11.8754 19.8931C12.176 19.5925 12.5836 19.4236 13.0087 19.4236H59.8031C60.2282 19.4236 60.6359 19.5925 60.9364 19.8931C61.237 20.1937 61.4059 20.6013 61.4059 21.0264V45.8144C61.406 46.163 61.5445 46.4972 61.791 46.7437C62.0375 46.9901 62.3718 47.1286 62.7203 47.1286C63.0689 47.1286 63.4032 46.9901 63.6497 46.7437C63.8962 46.4972 64.0347 46.163 64.0348 45.8144V21.0264C64.0348 20.4689 63.9248 19.9168 63.7112 19.4018C63.4976 18.8868 63.1845 18.419 62.7899 18.0252C62.3952 17.6313 61.9268 17.3192 61.4114 17.1066C60.896 16.894 60.3437 16.7851 59.7862 16.7863Z" fill="#FF0000"/>
		<path d="M51.0261 6.55902H4.24016C3.1156 6.55902 2.0371 7.00575 1.24191 7.80093C0.44673 8.59612 0 9.67462 0 10.7992L0 42.9566C0 44.0811 0.44673 45.1596 1.24191 45.9548C2.0371 46.75 3.1156 47.1967 4.24016 47.1967H9.98133C10.1623 47.2113 10.3442 47.1882 10.5158 47.129C10.6874 47.0697 10.8448 46.9756 10.9782 46.8525C11.1116 46.7294 11.2181 46.5801 11.2909 46.4138C11.3637 46.2475 11.4013 46.068 11.4013 45.8865C11.4013 45.705 11.3637 45.5255 11.2909 45.3592C11.2181 45.1929 11.1116 45.0436 10.9782 44.9205C10.8448 44.7974 10.6874 44.7033 10.5158 44.644C10.3442 44.5848 10.1623 44.5617 9.98133 44.5763H4.24016C3.81508 44.5763 3.4074 44.4074 3.10682 44.1068C2.80624 43.8063 2.63738 43.3986 2.63738 42.9735V10.7992C2.63738 10.3741 2.80624 9.96642 3.10682 9.66584C3.4074 9.36526 3.81508 9.1964 4.24016 9.1964H51.043C51.4681 9.1964 51.8758 9.36526 52.1764 9.66584C52.477 9.96642 52.6458 10.3741 52.6458 10.7992V18.0583C52.6313 18.2393 52.6543 18.4212 52.7135 18.5928C52.7728 18.7644 52.8669 18.9218 52.99 19.0552C53.1131 19.1886 53.2625 19.2951 53.4287 19.3679C53.595 19.4407 53.7745 19.4783 53.956 19.4783C54.1375 19.4783 54.3171 19.4407 54.4833 19.3679C54.6496 19.2951 54.799 19.1886 54.9221 19.0552C55.0452 18.9218 55.1393 18.7644 55.1985 18.5928C55.2577 18.4212 55.2808 18.2393 55.2662 18.0583V10.7992C55.2662 9.67462 54.8195 8.59612 54.0243 7.80093C53.2291 7.00575 52.1506 6.55902 51.0261 6.55902Z" fill="#FF0000"/>
	</g>
	<defs>
		<clipPath id="clip0_74_3254">
			<rect width="64" height="64" fill="white"/>
		</clipPath>
	</defs>
</svg>
