<svg width="20" height="20" viewBox="0 0 20 20" fill="none" xmlns="http://www.w3.org/2000/svg">
	<path d="M9.41142 5.96962L10.0002 6.55734L10.5889 5.96962C11.884 4.67677 13.9844 4.67677 15.2794 5.96962C16.5526 7.24056 16.5734 9.28794 15.3419 10.5839L15.2758 10.6516L10.1449 15.7736C10.0651 15.8532 9.93518 15.8532 9.8554 15.7736L4.72456 10.6516L4.65839 10.5839C3.42696 9.28793 3.44773 7.24056 4.72088 5.96962C6.01597 4.67677 8.11632 4.67677 9.41142 5.96962ZM10.0002 4.2865C8.05145 2.86546 5.3032 3.03332 3.54339 4.79008C1.62674 6.70341 1.59729 9.78763 3.45523 11.7373L3.45882 11.741L3.53972 11.8238L8.67791 16.9531C9.40833 17.6823 10.592 17.6823 11.3224 16.9531L16.4606 11.8238L16.5415 11.741L16.5451 11.7373C18.403 9.78763 18.3736 6.70341 16.4569 4.79008C14.6971 3.03332 11.9489 2.86546 10.0002 4.2865Z" fill="#86909C"/>
</svg>
