<svg width="64" height="64" viewBox="0 0 64 64" fill="none" xmlns="http://www.w3.org/2000/svg">
	<path d="M7.99998 12.2656C7.85977 12.2656 7.72094 12.2933 7.59145 12.347C7.46195 12.4008 7.34434 12.4796 7.24535 12.5788C7.14636 12.6781 7.06793 12.796 7.01457 12.9256C6.96121 13.0553 6.93396 13.1942 6.93438 13.3344V50.6656C6.93438 51.2544 7.41118 51.7344 7.99998 51.7344H56C56.5888 51.7344 57.0656 51.2544 57.0656 50.6656V13.3344C57.066 13.1942 57.0387 13.0553 56.9854 12.9256C56.932 12.796 56.8536 12.6781 56.7546 12.5788C56.6556 12.4796 56.538 12.4008 56.4085 12.347C56.279 12.2933 56.1402 12.2656 56 12.2656H7.99998ZM3.73438 13.3344C3.73438 10.976 5.64478 9.06561 7.99998 9.06561H56C58.3552 9.06561 60.2656 10.976 60.2656 13.3344V50.6656C60.2656 53.024 58.3552 54.9344 56 54.9344H7.99998C7.43954 54.9344 6.8846 54.824 6.36686 54.6094C5.84913 54.3948 5.37875 54.0803 4.98261 53.6839C4.58647 53.2875 4.27233 52.8169 4.05816 52.299C3.84398 51.7811 3.73396 51.226 3.73438 50.6656V13.3344ZM15.7344 28C15.7334 26.8525 16.0173 25.7228 16.5604 24.712C17.1036 23.7012 17.8891 22.841 18.8465 22.2085C19.8039 21.576 20.9034 21.191 22.0462 21.088C23.1891 20.985 24.3396 21.1672 25.3947 21.6182C26.4498 22.0693 27.3765 22.7752 28.0916 23.6725C28.8068 24.5699 29.2881 25.6307 29.4924 26.7598C29.6967 27.889 29.6176 29.0512 29.2622 30.1422C28.9067 31.2332 28.2861 32.219 27.456 33.0112C28.9183 33.8528 30.1328 35.0651 30.9772 36.5258C31.8216 37.9865 32.266 39.644 32.2656 41.3312C32.2656 41.7556 32.097 42.1625 31.7969 42.4626C31.4969 42.7626 31.0899 42.9312 30.6656 42.9312C30.2412 42.9312 29.8343 42.7626 29.5342 42.4626C29.2341 42.1625 29.0656 41.7556 29.0656 41.3312C29.0656 39.6338 28.3913 38.006 27.1911 36.8057C25.9908 35.6055 24.363 34.9312 22.6656 34.9312C20.9682 34.9312 19.3403 35.6055 18.1401 36.8057C16.9399 38.006 16.2656 39.6338 16.2656 41.3312C16.2656 41.7556 16.097 42.1625 15.7969 42.4626C15.4969 42.7626 15.0899 42.9312 14.6656 42.9312C14.2412 42.9312 13.8343 42.7626 13.5342 42.4626C13.2341 42.1625 13.0656 41.7556 13.0656 41.3312C13.0656 37.776 15.0016 34.672 17.8752 33.0112C17.1968 32.3649 16.6569 31.5873 16.2884 30.7259C15.9198 29.8644 15.7302 28.937 15.7312 28H15.7344ZM22.6656 24.2656C21.6752 24.2656 20.7253 24.6591 20.025 25.3594C19.3246 26.0597 18.9312 27.0096 18.9312 28C18.9312 28.9904 19.3246 29.9403 20.025 30.6406C20.7253 31.341 21.6752 31.7344 22.6656 31.7344C23.656 31.7344 24.6059 31.341 25.3062 30.6406C26.0065 29.9403 26.4 28.9904 26.4 28C26.4 27.0096 26.0065 26.0597 25.3062 25.3594C24.6059 24.6591 23.656 24.2656 22.6656 24.2656ZM35.7344 26.6656C35.7344 26.2413 35.903 25.8343 36.203 25.5342C36.5031 25.2342 36.91 25.0656 37.3344 25.0656H48C48.4243 25.0656 48.8313 25.2342 49.1313 25.5342C49.4314 25.8343 49.6 26.2413 49.6 26.6656C49.6 27.09 49.4314 27.4969 49.1313 27.797C48.8313 28.097 48.4243 28.2656 48 28.2656H37.3344C36.91 28.2656 36.5031 28.097 36.203 27.797C35.903 27.4969 35.7344 27.09 35.7344 26.6656ZM40 35.7344C39.5756 35.7344 39.1687 35.903 38.8686 36.203C38.5686 36.5031 38.4 36.9101 38.4 37.3344C38.4 37.7588 38.5686 38.1657 38.8686 38.4658C39.1687 38.7658 39.5756 38.9344 40 38.9344H48C48.4243 38.9344 48.8313 38.7658 49.1313 38.4658C49.4314 38.1657 49.6 37.7588 49.6 37.3344C49.6 36.9101 49.4314 36.5031 49.1313 36.203C48.8313 35.903 48.4243 35.7344 48 35.7344H40Z" fill="#FF0000"/>
</svg>
