<svg width="20" height="19" viewBox="0 0 20 19" fill="none" xmlns="http://www.w3.org/2000/svg">
	<path fill-rule="evenodd" clip-rule="evenodd" d="M2.17192 12.3048C3.1952 11.4386 4.56078 11 6 11H14C15.4392 11 16.8048 11.4386 17.8281 12.3048C18.8672 13.1844 19.5 14.4637 19.5 16V17.5C19.5 18.3284 18.8284 19 18 19H2C1.17157 19 0.5 18.3284 0.5 17.5V16C0.5 14.4637 1.13278 13.1844 2.17192 12.3048ZM3.46412 13.8313C2.87458 14.3303 2.5 15.051 2.5 16V17H17.5V16C17.5 15.051 17.1254 14.3303 16.5359 13.8313C15.9305 13.3188 15.0461 13 14 13H6C4.95394 13 4.06952 13.3188 3.46412 13.8313Z" fill="#4B5667"/>
	<path fill-rule="evenodd" clip-rule="evenodd" d="M10 2C8.34315 2 7 3.34315 7 5C7 6.65685 8.34315 8 10 8C11.6569 8 13 6.65685 13 5C13 3.34315 11.6569 2 10 2ZM5 5C5 2.23858 7.23858 0 10 0C12.7614 0 15 2.23858 15 5C15 7.76142 12.7614 10 10 10C7.23858 10 5 7.76142 5 5Z" fill="#4B5667"/>
</svg>
