<svg width="22" height="22" viewBox="0 0 22 22" fill="none" xmlns="http://www.w3.org/2000/svg">
	<path fill-rule="evenodd" clip-rule="evenodd" d="M16.7291 4.12496C17.362 4.12496 17.875 4.63797 17.875 5.27079C17.875 5.90362 17.362 6.41663 16.7291 6.41663C16.2754 6.41663 15.8814 6.15289 15.6954 5.76625C15.5796 5.5254 15.5523 5.23928 15.6207 4.97847C15.7498 4.48666 16.1984 4.12496 16.7291 4.12496ZM19.7083 5.27079C19.7083 3.62544 18.3745 2.29163 16.7291 2.29163C15.3446 2.29163 14.1828 3.23529 13.8474 4.51308C13.7482 4.89105 13.7254 5.28565 13.7774 5.67085L7.42949 8.71785C6.88733 8.14794 6.12114 7.79166 5.27081 7.79166C3.62547 7.79166 2.29165 9.12547 2.29165 10.7708C2.29165 12.4162 3.62547 13.75 5.27081 13.75C6.08679 13.75 6.82535 13.4218 7.36272 12.8918L13.7934 16.2358C13.5201 17.9497 14.8333 19.7083 16.7291 19.7083C18.3745 19.7083 19.7083 18.3745 19.7083 16.7291C19.7083 15.0838 18.3745 13.75 16.7291 13.75C15.9132 13.75 15.1746 14.0781 14.6372 14.6082L8.20896 11.2655C8.23595 11.1044 8.24998 10.9391 8.24998 10.7708C8.24998 10.6353 8.24087 10.5016 8.22321 10.3705L14.5705 7.32376C15.1126 7.89368 15.8788 8.24996 16.7291 8.24996C18.3745 8.24996 19.7083 6.91614 19.7083 5.27079ZM5.27081 9.62499C5.72461 9.62499 6.11859 9.88872 6.30452 10.2754C6.3761 10.4242 6.41665 10.5915 6.41665 10.7708C6.41665 10.9632 6.36998 11.1419 6.28815 11.299C6.09588 11.668 5.71163 11.9167 5.27081 11.9167C4.63799 11.9167 4.12498 11.4036 4.12498 10.7708C4.12498 10.138 4.63799 9.62499 5.27081 9.62499ZM16.7291 15.5833C17.362 15.5833 17.875 16.0963 17.875 16.7291C17.875 17.362 17.362 17.875 16.7291 17.875C15.8988 17.875 15.3332 16.9276 15.7118 16.201C15.9041 15.832 16.2883 15.5833 16.7291 15.5833Z" fill="#4B5667"/>
</svg>
