<svg width="18" height="20" viewBox="0 0 18 20" fill="none" xmlns="http://www.w3.org/2000/svg">
	<path fill-rule="evenodd" clip-rule="evenodd" d="M10.8994 0.445077C11.4852 -0.140709 12.4349 -0.14071 13.0207 0.445077L15.8135 3.23792C16.3993 3.82371 16.3993 4.77346 15.8135 5.35924L5.5886 15.5842C5.3499 15.8229 5.03766 15.9741 4.70237 16.0133L1.67889 16.3673C0.741964 16.477 -0.0624526 15.7049 0.00874652 14.7643L0.247558 11.6093C0.274632 11.2516 0.428982 10.9155 0.68262 10.6618L10.8994 0.445077ZM10.1538 4.01909L12.2395 6.10483L14.0458 4.29858L11.96 2.21284L10.1538 4.01909ZM10.8253 7.51904L8.73957 5.43331L2.22787 11.945L2.04883 14.3104L4.29724 14.0471L10.8253 7.51904ZM18 19.9999L0 19.9999V17.9999L18 17.9999V19.9999Z" fill="#4B5667"/>
</svg>
