<svg width="20" height="20" viewBox="0 0 20 20" fill="none" xmlns="http://www.w3.org/2000/svg">
	<path fill-rule="evenodd" clip-rule="evenodd" d="M10 2.5C8.61929 2.5 7.5 3.61929 7.5 5C7.5 6.38071 8.61929 7.5 10 7.5C11.3807 7.5 12.5 6.38071 12.5 5C12.5 3.61929 11.3807 2.5 10 2.5ZM5.5 5C5.5 2.51472 7.51472 0.5 10 0.5C12.4853 0.5 14.5 2.51472 14.5 5C14.5 7.48528 12.4853 9.5 10 9.5C7.51472 9.5 5.5 7.48528 5.5 5Z" fill="#4B5667"/>
	<path fill-rule="evenodd" clip-rule="evenodd" d="M15 14.5V11.5H17V14.5H20V16.5H17V19.5H15V16.5H12V14.5H15Z" fill="#4B5667"/>
	<path fill-rule="evenodd" clip-rule="evenodd" d="M6.5 12.5C4.29086 12.5 2.5 14.2909 2.5 16.5V17.5H10.5V19.5H0.5V16.5C0.5 13.1863 3.18629 10.5 6.5 10.5H10.5V12.5H6.5Z" fill="#4B5667"/>
</svg>
