<svg width="20" height="20" viewBox="0 0 20 20" fill="none" xmlns="http://www.w3.org/2000/svg">
	<path fill-rule="evenodd" clip-rule="evenodd" d="M0 2C0 1.17157 0.671574 0.5 1.5 0.5H18.5C19.3284 0.5 20 1.17157 20 2V15C20 15.8284 19.3284 16.5 18.5 16.5H1.5C0.671574 16.5 0 15.8284 0 15V2ZM2 2.5V14.5H18V2.5H2Z" fill="#4B5667"/>
	<path fill-rule="evenodd" clip-rule="evenodd" d="M16 19.5H4V17.5H16V19.5Z" fill="#4B5667"/>
	<path d="M11.1555 7.49156L9.67468 6.02253L11.0832 4.60268L14.9878 8.47621L11.1143 12.3808L9.69444 10.9722L11.1634 9.49154L4.5422 9.51797L4.53422 7.51799L11.1555 7.49156Z" fill="#4B5667"/>
</svg>
