<svg width="20" height="20" viewBox="0 0 20 20" fill="none" xmlns="http://www.w3.org/2000/svg">
	<path fill-rule="evenodd" clip-rule="evenodd" d="M14.3283 4.42898C11.5946 1.69531 7.16246 1.69531 4.42879 4.42898C1.69512 7.16265 1.69512 11.5948 4.42879 14.3285C7.16246 17.0621 11.5946 17.0621 14.3283 14.3285C17.062 11.5948 17.062 7.16265 14.3283 4.42898ZM3.01458 3.01476C6.5293 -0.499957 12.2278 -0.499957 15.7425 3.01476C19.0182 6.29047 19.241 11.463 16.4108 14.9967L19.9851 18.5711L18.5709 19.9853L14.9966 16.4109C11.4629 19.2411 6.29029 19.0184 3.01458 15.7427C-0.50014 12.228 -0.50014 6.52948 3.01458 3.01476Z" fill="#4B5667"/>
</svg>
